<svg width="27" height="27" viewBox="0 0 27 27" fill="none" xmlns="http://www.w3.org/2000/svg">
<rect width="27" height="27" rx="8" fill="#4F46E5"/>
<path d="M6 12.6667V6H12.6667V12.6667H6V12.6667M6 21V14.3333H12.6667V21H6V21M14.3333 12.6667V6H21V12.6667H14.3333V12.6667M14.3333 21V14.3333H21V21H14.3333V21M7.66667 11H11V7.66667H7.66667V11V11M16 11H19.3333V7.66667H16V11V11M16 19.3333H19.3333V16H16V19.3333V19.3333M7.66667 19.3333H11V16H7.66667V19.3333V19.3333M16 11V11V11V11V11V11M16 16V16V16V16V16V16M11 16V16V16V16V16V16M11 11V11V11V11V11V11" fill="white"/>
</svg>
