<svg width="12" height="12" viewBox="0 0 12 12" fill="none" xmlns="http://www.w3.org/2000/svg">
<path d="M5.65833 9.33333C4.725 9.28472 3.9375 8.925 3.29583 8.25417C2.65417 7.58333 2.33333 6.77639 2.33333 5.83333C2.33333 4.86111 2.67361 4.03472 3.35417 3.35417C4.03472 2.67361 4.86111 2.33333 5.83333 2.33333C6.77639 2.33333 7.58333 2.65417 8.25417 3.29583C8.925 3.9375 9.28472 4.725 9.33333 5.65833L8.10833 5.29375C7.98194 4.76875 7.70972 4.33854 7.29167 4.00313C6.87361 3.66771 6.3875 3.5 5.83333 3.5C5.19167 3.5 4.64236 3.72847 4.18542 4.18542C3.72847 4.64236 3.5 5.19167 3.5 5.83333C3.5 6.3875 3.66771 6.87361 4.00313 7.29167C4.33854 7.70972 4.76875 7.98194 5.29375 8.10833L5.65833 9.33333ZM6.35833 11.6375C6.27083 11.6569 6.18333 11.6667 6.09583 11.6667C6.00833 11.6667 5.92083 11.6667 5.83333 11.6667C5.02639 11.6667 4.26806 11.5135 3.55833 11.2073C2.84861 10.901 2.23125 10.4854 1.70625 9.96042C1.18125 9.43542 0.765625 8.81806 0.459375 8.10833C0.153125 7.39861 0 6.64028 0 5.83333C0 5.02639 0.153125 4.26806 0.459375 3.55833C0.765625 2.84861 1.18125 2.23125 1.70625 1.70625C2.23125 1.18125 2.84861 0.765625 3.55833 0.459375C4.26806 0.153125 5.02639 0 5.83333 0C6.64028 0 7.39861 0.153125 8.10833 0.459375C8.81806 0.765625 9.43542 1.18125 9.96042 1.70625C10.4854 2.23125 10.901 2.84861 11.2073 3.55833C11.5135 4.26806 11.6667 5.02639 11.6667 5.83333C11.6667 5.92083 11.6667 6.00833 11.6667 6.09583C11.6667 6.18333 11.6569 6.27083 11.6375 6.35833L10.5 6.00833V5.83333C10.5 4.53056 10.0479 3.42708 9.14375 2.52292C8.23958 1.61875 7.13611 1.16667 5.83333 1.16667C4.53056 1.16667 3.42708 1.61875 2.52292 2.52292C1.61875 3.42708 1.16667 4.53056 1.16667 5.83333C1.16667 7.13611 1.61875 8.23958 2.52292 9.14375C3.42708 10.0479 4.53056 10.5 5.83333 10.5C5.8625 10.5 5.89167 10.5 5.92083 10.5C5.95 10.5 5.97917 10.5 6.00833 10.5L6.35833 11.6375ZM10.8062 11.9583L8.3125 9.46458L7.58333 11.6667L5.83333 5.83333L11.6667 7.58333L9.46458 8.3125L11.9583 10.8062L10.8062 11.9583Z" fill="#94A3B8"/>
</svg>
